# xmcd CD database file
#
# Track frame offsets:
#	150
#	15652
#	30000
#	44327
#	55237
#	68434
#	81464
#	95044
#	108827
#	122417
#	136789
#	148787
#	160857
#	173488
#	186783
#	200497
#	214422
#	225288
#	237154
#	249160
#	260548
#	273179
#	286613
#	296564
#	308513
#
# Disc length: 4283 seconds
#
# Revision: 0
# Processed by: cddbd v1.5.2PL0 Copyright (c) Steve Scherf et al.
# Submitted via: CDex 1.51
#
DISCID=4910b919
DTITLE=Nat King Cole - The Essence of
DYEAR=2006
DGENRE=Jazz
TTITLE0=Mona Lisa
TTITLE1=Too young
TTITLE2=Unforgettable
TTITLE3=Straighten up and fly right
TTITLE4=Gee, baby, ain't I good to you
TTITLE5=I love you (for sentimental reasons)
TTITLE6=Get your kicks (on Route 66)
TTITLE7=You call it madness (but I call it love)
TTITLE8=The best man
TTITLE9=The Christmas song (chestnuts roasting on an open fire)
TTITLE10=Save the bones for Henry Jones
TTITLE11=Put'em in a box, tie'em with a ribbon
TTITLE12=Those things money can't buy
TTITLE13=Lost April
TTITLE14=What'll I do?
TTITLE15=You can't learn that in school
TTITLE16=Little girl
TTITLE17=Nature boy
TTITLE18=A boy from Texas - a girl from Tennessee
TTITLE19=Orange coloured sky
TTITLE20=Jet
TTITLE21=Always you
TTITLE22=I'm never satisfied
TTITLE23=Walkin' my baby back home
TTITLE24=A fool was I
EXTD=YEAR: 2006
EXTT0=
EXTT1=
EXTT2=
EXTT3=
EXTT4=
EXTT5=
EXTT6=
EXTT7=
EXTT8=
EXTT9=
EXTT10=
EXTT11=
EXTT12=
EXTT13=
EXTT14=
EXTT15=
EXTT16=
EXTT17=
EXTT18=
EXTT19=
EXTT20=
EXTT21=
EXTT22=
EXTT23=
EXTT24=
PLAYORDER=
